<mxfile host="app.diagrams.net" modified="2021-02-05T13:10:52.986Z" agent="5.0 (Macintosh; Intel Mac OS X 11_0) AppleWebKit/605.1.15 (KHTML, like Gecko) Version/14.0 Safari/605.1.15" etag="PJwQI2gXPbDaOQ7r6Da6" version="14.2.9" type="github">
  <diagram name="Page-1" id="74e2e168-ea6b-b213-b513-2b3c1d86103e">
    <mxGraphModel dx="355" dy="247" grid="1" gridSize="10" guides="1" tooltips="1" connect="1" arrows="1" fold="1" page="1" pageScale="1" pageWidth="1100" pageHeight="850" background="#ffffff" math="0" shadow="0">
      <root>
        <mxCell id="0" />
        <mxCell id="1" parent="0" />
        <mxCell id="77e6c97f196da883-1" value="&lt;font style=&quot;font-size: 12px&quot;&gt;Identify Phishing Email&lt;/font&gt;" style="swimlane;html=1;childLayout=stackLayout;startSize=20;rounded=0;shadow=0;labelBackgroundColor=none;strokeWidth=1;fontFamily=Verdana;fontSize=8;align=center;" parent="1" vertex="1">
          <mxGeometry x="70" y="80" width="780" height="820" as="geometry" />
        </mxCell>
        <mxCell id="77e6c97f196da883-2" value="User" style="swimlane;html=1;startSize=20;" parent="77e6c97f196da883-1" vertex="1">
          <mxGeometry y="20" width="150" height="800" as="geometry">
            <mxRectangle y="20" width="30" height="730" as="alternateBounds" />
          </mxGeometry>
        </mxCell>
        <mxCell id="77e6c97f196da883-8" value="report&lt;br&gt;Suspicious email&lt;br&gt;to IT" style="rounded=1;whiteSpace=wrap;html=1;shadow=0;labelBackgroundColor=none;strokeWidth=1;fontFamily=Verdana;fontSize=8;align=center;" parent="77e6c97f196da883-2" vertex="1">
          <mxGeometry x="60" y="70" width="70" height="50" as="geometry" />
        </mxCell>
        <mxCell id="MuDciHC5nGFlPHXUYhwh-1" value="" style="ellipse;whiteSpace=wrap;html=1;aspect=fixed;fillColor=#000000;" vertex="1" parent="77e6c97f196da883-2">
          <mxGeometry x="10" y="80" width="30" height="30" as="geometry" />
        </mxCell>
        <mxCell id="MuDciHC5nGFlPHXUYhwh-2" value="" style="endArrow=classic;html=1;" edge="1" parent="77e6c97f196da883-2">
          <mxGeometry width="50" height="50" relative="1" as="geometry">
            <mxPoint x="40" y="94.41" as="sourcePoint" />
            <mxPoint x="60" y="94" as="targetPoint" />
          </mxGeometry>
        </mxCell>
        <mxCell id="MuDciHC5nGFlPHXUYhwh-3" value="Start" style="text;html=1;strokeColor=none;fillColor=none;align=center;verticalAlign=middle;whiteSpace=wrap;rounded=0;" vertex="1" parent="77e6c97f196da883-2">
          <mxGeometry x="5" y="60" width="40" height="20" as="geometry" />
        </mxCell>
        <mxCell id="MuDciHC5nGFlPHXUYhwh-36" value="&lt;font style=&quot;font-size: 8px&quot;&gt;1 Phishing&amp;nbsp;&lt;br&gt;Point&lt;br&gt;&lt;/font&gt;" style="shape=parallelogram;perimeter=parallelogramPerimeter;whiteSpace=wrap;html=1;fixedSize=1;" vertex="1" parent="77e6c97f196da883-2">
          <mxGeometry x="50" y="174" width="76" height="30" as="geometry" />
        </mxCell>
        <mxCell id="MuDciHC5nGFlPHXUYhwh-37" value="&lt;font style=&quot;font-size: 8px&quot;&gt;1 Phishing&amp;nbsp;&lt;br&gt;Point&lt;br&gt;&lt;/font&gt;" style="shape=parallelogram;perimeter=parallelogramPerimeter;whiteSpace=wrap;html=1;fixedSize=1;" vertex="1" parent="77e6c97f196da883-2">
          <mxGeometry x="45" y="305" width="76" height="30" as="geometry" />
        </mxCell>
        <mxCell id="MuDciHC5nGFlPHXUYhwh-49" value="1 Phishing&lt;br&gt;Point" style="shape=parallelogram;perimeter=parallelogramPerimeter;whiteSpace=wrap;html=1;fixedSize=1;rounded=0;shadow=0;fontFamily=Verdana;fontSize=8;strokeWidth=1;" vertex="1" parent="77e6c97f196da883-2">
          <mxGeometry x="43" y="412" width="80" height="30" as="geometry" />
        </mxCell>
        <mxCell id="MuDciHC5nGFlPHXUYhwh-55" value="Recommend user call to his/her make sure they are indeed" style="rounded=1;whiteSpace=wrap;html=1;shadow=0;labelBackgroundColor=none;strokeWidth=1;fontFamily=Verdana;fontSize=8;align=center;" vertex="1" parent="77e6c97f196da883-2">
          <mxGeometry x="48" y="229" width="70" height="50" as="geometry" />
        </mxCell>
        <mxCell id="MuDciHC5nGFlPHXUYhwh-65" value="1 Phishing&lt;br&gt;Point" style="shape=parallelogram;perimeter=parallelogramPerimeter;whiteSpace=wrap;html=1;fixedSize=1;rounded=0;shadow=0;fontFamily=Verdana;fontSize=8;strokeWidth=1;" vertex="1" parent="77e6c97f196da883-2">
          <mxGeometry x="42" y="534" width="80" height="30" as="geometry" />
        </mxCell>
        <mxCell id="77e6c97f196da883-26" style="edgeStyle=orthogonalEdgeStyle;rounded=1;html=1;labelBackgroundColor=none;startArrow=none;startFill=0;startSize=5;endArrow=classicThin;endFill=1;endSize=5;jettySize=auto;orthogonalLoop=1;strokeWidth=1;fontFamily=Verdana;fontSize=8" parent="77e6c97f196da883-1" source="77e6c97f196da883-8" target="77e6c97f196da883-11" edge="1">
          <mxGeometry relative="1" as="geometry" />
        </mxCell>
        <mxCell id="77e6c97f196da883-3" value="ITserviceDesk" style="swimlane;html=1;startSize=20;" parent="77e6c97f196da883-1" vertex="1">
          <mxGeometry x="150" y="20" width="150" height="800" as="geometry">
            <mxRectangle x="150" y="20" width="150" height="800" as="alternateBounds" />
          </mxGeometry>
        </mxCell>
        <mxCell id="77e6c97f196da883-11" value="Receive and doing exercise with Users" style="rounded=1;whiteSpace=wrap;html=1;shadow=0;labelBackgroundColor=none;strokeWidth=1;fontFamily=Verdana;fontSize=8;align=center;" parent="77e6c97f196da883-3" vertex="1">
          <mxGeometry x="40" y="68.75" width="70" height="52.5" as="geometry" />
        </mxCell>
        <mxCell id="MuDciHC5nGFlPHXUYhwh-5" value="&lt;font style=&quot;font-size: 7px&quot;&gt;*Check*&lt;br&gt;Is it from someone user know&lt;/font&gt;" style="rhombus;whiteSpace=wrap;html=1;rounded=0;shadow=0;labelBackgroundColor=none;strokeWidth=1;fontFamily=Verdana;fontSize=8;align=center;" vertex="1" parent="77e6c97f196da883-3">
          <mxGeometry x="35" y="160" width="80" height="60" as="geometry" />
        </mxCell>
        <mxCell id="MuDciHC5nGFlPHXUYhwh-16" value="" style="edgeStyle=orthogonalEdgeStyle;rounded=0;orthogonalLoop=1;jettySize=auto;html=1;entryX=0.5;entryY=0;entryDx=0;entryDy=0;" edge="1" parent="77e6c97f196da883-3" source="77e6c97f196da883-11" target="MuDciHC5nGFlPHXUYhwh-5">
          <mxGeometry relative="1" as="geometry">
            <mxPoint x="80" y="150" as="targetPoint" />
          </mxGeometry>
        </mxCell>
        <mxCell id="MuDciHC5nGFlPHXUYhwh-28" value="No" style="text;html=1;strokeColor=none;fillColor=none;align=center;verticalAlign=middle;whiteSpace=wrap;rounded=0;" vertex="1" parent="77e6c97f196da883-3">
          <mxGeometry x="-5" y="170" width="40" height="20" as="geometry" />
        </mxCell>
        <mxCell id="MuDciHC5nGFlPHXUYhwh-29" value="Yes" style="text;html=1;strokeColor=none;fillColor=none;align=center;verticalAlign=middle;whiteSpace=wrap;rounded=0;" vertex="1" parent="77e6c97f196da883-3">
          <mxGeometry x="75" y="220" width="40" height="20" as="geometry" />
        </mxCell>
        <mxCell id="MuDciHC5nGFlPHXUYhwh-25" value="" style="edgeStyle=orthogonalEdgeStyle;rounded=0;orthogonalLoop=1;jettySize=auto;html=1;entryX=0.5;entryY=0;entryDx=0;entryDy=0;" edge="1" parent="77e6c97f196da883-3" source="MuDciHC5nGFlPHXUYhwh-5" target="MuDciHC5nGFlPHXUYhwh-61">
          <mxGeometry relative="1" as="geometry">
            <mxPoint x="75" y="240" as="targetPoint" />
          </mxGeometry>
        </mxCell>
        <mxCell id="MuDciHC5nGFlPHXUYhwh-30" value="&lt;span style=&quot;font-size: 7px&quot;&gt;*Check*&lt;br&gt;Contains generic language&lt;br&gt;&lt;/span&gt;" style="rhombus;whiteSpace=wrap;html=1;rounded=0;shadow=0;labelBackgroundColor=none;strokeWidth=1;fontFamily=Verdana;fontSize=8;align=center;" vertex="1" parent="77e6c97f196da883-3">
          <mxGeometry x="35" y="290" width="80" height="60" as="geometry" />
        </mxCell>
        <mxCell id="MuDciHC5nGFlPHXUYhwh-45" value="No" style="text;html=1;strokeColor=none;fillColor=none;align=center;verticalAlign=middle;whiteSpace=wrap;rounded=0;" vertex="1" parent="77e6c97f196da883-3">
          <mxGeometry x="-5" y="300" width="40" height="20" as="geometry" />
        </mxCell>
        <mxCell id="MuDciHC5nGFlPHXUYhwh-46" value="&lt;span style=&quot;font-size: 7px&quot;&gt;*Check*&lt;/span&gt;&lt;br&gt;&lt;span style=&quot;font-size: 7px&quot;&gt;Convey user with &amp;nbsp;sense of urgency&lt;/span&gt;" style="rhombus;whiteSpace=wrap;html=1;rounded=0;shadow=0;labelBackgroundColor=none;strokeWidth=1;fontFamily=Verdana;fontSize=8;align=center;" vertex="1" parent="77e6c97f196da883-3">
          <mxGeometry x="35" y="400" width="80" height="60" as="geometry" />
        </mxCell>
        <mxCell id="MuDciHC5nGFlPHXUYhwh-47" value="" style="edgeStyle=orthogonalEdgeStyle;rounded=0;orthogonalLoop=1;jettySize=auto;html=1;" edge="1" parent="77e6c97f196da883-3" source="MuDciHC5nGFlPHXUYhwh-30" target="MuDciHC5nGFlPHXUYhwh-46">
          <mxGeometry relative="1" as="geometry" />
        </mxCell>
        <mxCell id="MuDciHC5nGFlPHXUYhwh-48" value="Yes" style="text;html=1;strokeColor=none;fillColor=none;align=center;verticalAlign=middle;whiteSpace=wrap;rounded=0;" vertex="1" parent="77e6c97f196da883-3">
          <mxGeometry x="75" y="350" width="40" height="20" as="geometry" />
        </mxCell>
        <mxCell id="MuDciHC5nGFlPHXUYhwh-51" value="Yes" style="text;html=1;strokeColor=none;fillColor=none;align=center;verticalAlign=middle;whiteSpace=wrap;rounded=0;" vertex="1" parent="77e6c97f196da883-3">
          <mxGeometry x="-5" y="410" width="40" height="20" as="geometry" />
        </mxCell>
        <mxCell id="MuDciHC5nGFlPHXUYhwh-52" value="No" style="text;html=1;strokeColor=none;fillColor=none;align=center;verticalAlign=middle;whiteSpace=wrap;rounded=0;" vertex="1" parent="77e6c97f196da883-3">
          <mxGeometry x="75" y="460" width="40" height="20" as="geometry" />
        </mxCell>
        <mxCell id="MuDciHC5nGFlPHXUYhwh-53" value="&lt;span style=&quot;font-size: 7px&quot;&gt;*Check*&lt;/span&gt;&lt;br&gt;&lt;span style=&quot;font-size: 7px&quot;&gt;Does it look legitimate?&lt;/span&gt;" style="rhombus;whiteSpace=wrap;html=1;rounded=0;shadow=0;labelBackgroundColor=none;strokeWidth=1;fontFamily=Verdana;fontSize=8;align=center;" vertex="1" parent="77e6c97f196da883-3">
          <mxGeometry x="35" y="520" width="80" height="60" as="geometry" />
        </mxCell>
        <mxCell id="MuDciHC5nGFlPHXUYhwh-54" value="" style="edgeStyle=orthogonalEdgeStyle;rounded=0;orthogonalLoop=1;jettySize=auto;html=1;" edge="1" parent="77e6c97f196da883-3" source="MuDciHC5nGFlPHXUYhwh-46" target="MuDciHC5nGFlPHXUYhwh-53">
          <mxGeometry relative="1" as="geometry" />
        </mxCell>
        <mxCell id="MuDciHC5nGFlPHXUYhwh-58" value="" style="endArrow=classic;html=1;entryX=1;entryY=0.5;entryDx=0;entryDy=0;" edge="1" parent="77e6c97f196da883-3" target="MuDciHC5nGFlPHXUYhwh-37">
          <mxGeometry width="50" height="50" relative="1" as="geometry">
            <mxPoint x="35" y="320" as="sourcePoint" />
            <mxPoint x="85" y="270" as="targetPoint" />
          </mxGeometry>
        </mxCell>
        <mxCell id="MuDciHC5nGFlPHXUYhwh-60" value="" style="endArrow=classic;html=1;entryX=1;entryY=0.5;entryDx=0;entryDy=0;" edge="1" parent="77e6c97f196da883-3">
          <mxGeometry width="50" height="50" relative="1" as="geometry">
            <mxPoint x="35" y="429.83" as="sourcePoint" />
            <mxPoint x="-39" y="429.83" as="targetPoint" />
          </mxGeometry>
        </mxCell>
        <mxCell id="MuDciHC5nGFlPHXUYhwh-61" value="" style="ellipse;whiteSpace=wrap;html=1;aspect=fixed;fillColor=#FFFFFF;" vertex="1" parent="77e6c97f196da883-3">
          <mxGeometry x="65" y="245" width="20" height="20" as="geometry" />
        </mxCell>
        <mxCell id="MuDciHC5nGFlPHXUYhwh-62" value="" style="endArrow=classic;html=1;exitX=0.5;exitY=1;exitDx=0;exitDy=0;" edge="1" parent="77e6c97f196da883-3" source="MuDciHC5nGFlPHXUYhwh-61">
          <mxGeometry width="50" height="50" relative="1" as="geometry">
            <mxPoint x="75" y="270" as="sourcePoint" />
            <mxPoint x="75" y="290" as="targetPoint" />
          </mxGeometry>
        </mxCell>
        <mxCell id="MuDciHC5nGFlPHXUYhwh-64" value="" style="endArrow=classic;html=1;entryX=1.007;entryY=0.53;entryDx=0;entryDy=0;entryPerimeter=0;" edge="1" parent="77e6c97f196da883-3" target="MuDciHC5nGFlPHXUYhwh-55">
          <mxGeometry width="50" height="50" relative="1" as="geometry">
            <mxPoint x="65" y="254.92000000000002" as="sourcePoint" />
            <mxPoint x="5" y="254.92000000000002" as="targetPoint" />
          </mxGeometry>
        </mxCell>
        <mxCell id="MuDciHC5nGFlPHXUYhwh-66" value="" style="endArrow=classic;html=1;entryX=1;entryY=0.5;entryDx=0;entryDy=0;" edge="1" parent="77e6c97f196da883-3">
          <mxGeometry width="50" height="50" relative="1" as="geometry">
            <mxPoint x="35" y="549.9" as="sourcePoint" />
            <mxPoint x="-39" y="549.9" as="targetPoint" />
          </mxGeometry>
        </mxCell>
        <mxCell id="MuDciHC5nGFlPHXUYhwh-67" value="No" style="text;html=1;strokeColor=none;fillColor=none;align=center;verticalAlign=middle;whiteSpace=wrap;rounded=0;" vertex="1" parent="77e6c97f196da883-3">
          <mxGeometry x="-5" y="530" width="40" height="20" as="geometry" />
        </mxCell>
        <mxCell id="MuDciHC5nGFlPHXUYhwh-69" value="Yes" style="text;html=1;strokeColor=none;fillColor=none;align=center;verticalAlign=middle;whiteSpace=wrap;rounded=0;" vertex="1" parent="77e6c97f196da883-3">
          <mxGeometry x="85" y="570" width="40" height="20" as="geometry" />
        </mxCell>
        <mxCell id="MuDciHC5nGFlPHXUYhwh-18" value="WPT-Infra" style="swimlane;html=1;startSize=20;" vertex="1" parent="77e6c97f196da883-1">
          <mxGeometry x="300" y="20" width="150" height="800" as="geometry">
            <mxRectangle x="300" y="20" width="150" height="800" as="alternateBounds" />
          </mxGeometry>
        </mxCell>
        <mxCell id="MuDciHC5nGFlPHXUYhwh-23" value="WPT-Infra" style="swimlane;html=1;startSize=20;" vertex="1" parent="77e6c97f196da883-1">
          <mxGeometry x="450" y="20" width="150" height="800" as="geometry">
            <mxRectangle x="300" y="20" width="150" height="800" as="alternateBounds" />
          </mxGeometry>
        </mxCell>
        <mxCell id="MuDciHC5nGFlPHXUYhwh-27" value="" style="edgeStyle=orthogonalEdgeStyle;rounded=0;orthogonalLoop=1;jettySize=auto;html=1;entryX=1;entryY=0.5;entryDx=0;entryDy=0;" edge="1" parent="77e6c97f196da883-1" source="MuDciHC5nGFlPHXUYhwh-5">
          <mxGeometry relative="1" as="geometry">
            <mxPoint x="115" y="210.25" as="targetPoint" />
          </mxGeometry>
        </mxCell>
      </root>
    </mxGraphModel>
  </diagram>
</mxfile>
